<svg xmlns="http://www.w3.org/2000/svg" xmlns:xlink="http://www.w3.org/1999/xlink" width="2000" zoomAndPan="magnify" viewBox="0 0 1500 1499.999933" height="2000" preserveAspectRatio="xMidYMid meet" version="1.0"><defs><g/><clipPath id="e992f21545"><rect x="0" width="376" y="0" height="850"/></clipPath><clipPath id="f96ca42db1"><rect x="0" width="350" y="0" height="850"/></clipPath><clipPath id="5a44b52250"><path d="M 271 353 L 838 353 L 838 827 L 271 827 Z M 271 353 " clip-rule="nonzero"/></clipPath><clipPath id="24f78f4269"><path d="M 271.246094 800.828125 L 816.808594 353.386719 L 837.582031 378.714844 L 292.019531 826.15625 Z M 271.246094 800.828125 " clip-rule="nonzero"/></clipPath><clipPath id="6fe97f9a1f"><path d="M 0.199219 0.28125 L 566.601562 0.28125 L 566.601562 473.320312 L 0.199219 473.320312 Z M 0.199219 0.28125 " clip-rule="nonzero"/></clipPath><clipPath id="235751142e"><path d="M 0.246094 447.828125 L 545.808594 0.386719 L 566.582031 25.714844 L 21.019531 473.15625 Z M 0.246094 447.828125 " clip-rule="nonzero"/></clipPath><clipPath id="6e70786477"><rect x="0" width="567" y="0" height="474"/></clipPath></defs><rect x="-150" width="1800" fill="#ffffff" y="-149.999993" height="1799.99992" fill-opacity="1"/><rect x="-150" width="1800" fill="#ffffff" y="-149.999993" height="1799.99992" fill-opacity="1"/><g transform="matrix(1, 0, 0, 1, 624, 417)"><g clip-path="url(#e992f21545)"><g fill="#ffffff" fill-opacity="1"><g transform="translate(0.470546, 639.137086)"><g><path d="M 226.390625 11.140625 C 186.390625 11.140625 150.203125 2.992188 117.828125 -13.296875 C 85.460938 -29.585938 59.796875 -53.8125 40.828125 -85.96875 C 21.859375 -118.132812 12.375 -157.519531 12.375 -204.125 C 12.375 -239.582031 18.144531 -270.710938 29.6875 -297.515625 C 41.238281 -324.328125 57.015625 -346.800781 77.015625 -364.9375 C 97.015625 -383.082031 120.101562 -396.691406 146.28125 -405.765625 C 172.46875 -414.835938 200.203125 -419.375 229.484375 -419.375 C 252.984375 -419.375 274.628906 -416.691406 294.421875 -411.328125 C 314.222656 -405.972656 332.78125 -398.550781 350.09375 -389.0625 L 352.578125 -312.984375 L 346.390625 -312.984375 L 315.453125 -362.46875 C 311.335938 -370.300781 306.800781 -377.410156 301.84375 -383.796875 C 296.894531 -390.191406 290.710938 -395.039062 283.296875 -398.34375 C 277.109375 -401.226562 271.023438 -403.390625 265.046875 -404.828125 C 259.066406 -406.273438 251.539062 -407 242.46875 -407 C 218.550781 -407 196.796875 -400.609375 177.203125 -387.828125 C 157.617188 -375.046875 141.953125 -353.910156 130.203125 -324.421875 C 118.453125 -294.941406 112.578125 -254.632812 112.578125 -203.5 C 112.578125 -152.78125 118.144531 -112.675781 129.28125 -83.1875 C 140.414062 -53.707031 155.566406 -32.675781 174.734375 -20.09375 C 193.910156 -7.519531 215.457031 -1.234375 239.375 -1.234375 C 252.570312 -1.234375 263.085938 -2.160156 270.921875 -4.015625 C 278.753906 -5.867188 286.585938 -8.65625 294.421875 -12.375 C 302.265625 -15.664062 308.242188 -20.507812 312.359375 -26.90625 C 316.484375 -33.300781 320.195312 -40.207031 323.5 -47.625 L 350.71875 -108.25 L 356.90625 -108.25 L 355.046875 -19.796875 C 337.722656 -10.722656 318.335938 -3.300781 296.890625 2.46875 C 275.453125 8.25 251.953125 11.140625 226.390625 11.140625 Z M 226.390625 11.140625 "/></g></g></g></g></g><g transform="matrix(1, 0, 0, 1, 445, 212)"><g clip-path="url(#f96ca42db1)"><g fill="#ffffff" fill-opacity="1"><g transform="translate(2.501264, 639.910463)"><g><path d="M 12.375 0 L 12.375 -7.421875 L 227 -395.875 L 109.484375 -395.875 C 95.878906 -395.875 84.847656 -392.78125 76.390625 -386.59375 C 67.929688 -380.40625 60.40625 -371.332031 53.8125 -359.375 L 25.359375 -309.28125 L 19.171875 -309.28125 L 23.5 -408.234375 L 325.96875 -408.234375 L 325.96875 -400.8125 L 111.34375 -12.375 L 246.1875 -12.375 C 259.789062 -12.375 270.613281 -15.566406 278.65625 -21.953125 C 286.695312 -28.347656 294.015625 -37.523438 300.609375 -49.484375 L 327.21875 -98.96875 L 333.390625 -98.96875 L 329.0625 0 Z M 12.375 0 "/></g></g></g></g></g><g clip-path="url(#5a44b52250)"><g clip-path="url(#24f78f4269)"><g transform="matrix(1, 0, 0, 1, 271, 353)"><g clip-path="url(#6e70786477)"><g clip-path="url(#6fe97f9a1f)"><g clip-path="url(#235751142e)"><path fill="#ffffff" d="M 0.246094 447.828125 L 545.804688 0.390625 L 566.578125 25.71875 L 21.019531 473.15625 Z M 0.246094 447.828125 " fill-opacity="1" fill-rule="nonzero"/></g></g></g></g></g></g><path stroke-linecap="butt" transform="matrix(0.57952, -0.476085, 0.476085, 0.57952, 317.534888, 776.716425)" fill="none" stroke-linejoin="miter" d="M 0.00165257 2.000557 L 848.104863 2.00013 " stroke="#000000" stroke-width="4" stroke-opacity="1" stroke-miterlimit="4"/></svg>